<?xml version="1.0" encoding="UTF-8"?>
<svg width="22px" height="22px" viewBox="0 0 22 22" version="1.1" xmlns="http://www.w3.org/2000/svg" xmlns:xlink="http://www.w3.org/1999/xlink">
    <!-- Generator: Sketch 43.1 (39012) - http://www.bohemiancoding.com/sketch -->
    <title>Combined Shape Copy</title>
    <desc>Created with Sketch.</desc>
    <defs>
        <path d="M17,15.0093689 C17,14.4519098 17.4433532,14 18.0093689,14 L19.9906311,14 C20.5480902,14 21,14.4433532 21,15.0093689 L21,16.9906311 C21,17.5480902 20.5566468,18 19.9906311,18 L18.0093689,18 C17.4519098,18 17,17.5566468 17,16.9906311 L17,15.0093689 Z M25,15.0093689 C25,14.4519098 25.4433532,14 26.0093689,14 L27.9906311,14 C28.5480902,14 29,14.4433532 29,15.0093689 L29,16.9906311 C29,17.5480902 28.5566468,18 27.9906311,18 L26.0093689,18 C25.4519098,18 25,17.5566468 25,16.9906311 L25,15.0093689 Z M33,15.0093689 C33,14.4519098 33.4433532,14 34.0093689,14 L35.9906311,14 C36.5480902,14 37,14.4433532 37,15.0093689 L37,16.9906311 C37,17.5480902 36.5566468,18 35.9906311,18 L34.0093689,18 C33.4519098,18 33,17.5566468 33,16.9906311 L33,15.0093689 Z M17,23.0093689 C17,22.4519098 17.4433532,22 18.0093689,22 L19.9906311,22 C20.5480902,22 21,22.4433532 21,23.0093689 L21,24.9906311 C21,25.5480902 20.5566468,26 19.9906311,26 L18.0093689,26 C17.4519098,26 17,25.5566468 17,24.9906311 L17,23.0093689 Z M25,23.0093689 C25,22.4519098 25.4433532,22 26.0093689,22 L27.9906311,22 C28.5480902,22 29,22.4433532 29,23.0093689 L29,24.9906311 C29,25.5480902 28.5566468,26 27.9906311,26 L26.0093689,26 C25.4519098,26 25,25.5566468 25,24.9906311 L25,23.0093689 Z M33,23.0093689 C33,22.4519098 33.4433532,22 34.0093689,22 L35.9906311,22 C36.5480902,22 37,22.4433532 37,23.0093689 L37,24.9906311 C37,25.5480902 36.5566468,26 35.9906311,26 L34.0093689,26 C33.4519098,26 33,25.5566468 33,24.9906311 L33,23.0093689 Z M17,31.0093689 C17,30.4519098 17.4433532,30 18.0093689,30 L19.9906311,30 C20.5480902,30 21,30.4433532 21,31.0093689 L21,32.9906311 C21,33.5480902 20.5566468,34 19.9906311,34 L18.0093689,34 C17.4519098,34 17,33.5566468 17,32.9906311 L17,31.0093689 Z M25,31.0093689 C25,30.4519098 25.4433532,30 26.0093689,30 L27.9906311,30 C28.5480902,30 29,30.4433532 29,31.0093689 L29,32.9906311 C29,33.5480902 28.5566468,34 27.9906311,34 L26.0093689,34 C25.4519098,34 25,33.5566468 25,32.9906311 L25,31.0093689 Z M33,31.0093689 C33,30.4519098 33.4433532,30 34.0093689,30 L35.9906311,30 C36.5480902,30 37,30.4433532 37,31.0093689 L37,32.9906311 C37,33.5480902 36.5566468,34 35.9906311,34 L34.0093689,34 C33.4519098,34 33,33.5566468 33,32.9906311 L33,31.0093689 Z" id="path-1"></path>
        <filter x="-10.0%" y="-5.0%" width="120.0%" height="120.0%" filterUnits="objectBoundingBox" id="filter-2">
            <feOffset dx="0" dy="1" in="SourceAlpha" result="shadowOffsetOuter1"></feOffset>
            <feGaussianBlur stdDeviation="0.5" in="shadowOffsetOuter1" result="shadowBlurOuter1"></feGaussianBlur>
            <feColorMatrix values="0 0 0 0 0   0 0 0 0 0   0 0 0 0 0  0 0 0 0.1 0" type="matrix" in="shadowBlurOuter1"></feColorMatrix>
        </filter>
    </defs>
    <g id="Working" stroke="none" stroke-width="1" fill="none" fill-rule="evenodd">
        <g id="Top-Bar-Full" transform="translate(-16.000000, -14.000000)">
            <g id="Combined-Shape-Copy">
                <use fill="black" fill-opacity="1" filter="url(#filter-2)" xlink:href="#path-1"></use>
                <use fill="#64B6E3" fill-rule="evenodd" xlink:href="#path-1"></use>
            </g>
        </g>
    </g>
</svg>