<svg width="45" height="32" viewBox="0 0 45 32" xmlns="http://www.w3.org/2000/svg">
  <path class="icon" d="M16.608 16.365l-5.156 7.857c.642.55 1.048 1.367 1.048 2.278 0 1.657-1.343 3-3 3s-3-1.343-3-3 1.343-3 3-3c.386 0 .756.073 1.095.206l5.117-7.797c-.736-.55-1.212-1.43-1.212-2.41 0-1.66 1.343-3 3-3s3 1.34 3 3c0 .15-.012.31-.035.46l6.386 2.13c.51-.95 1.51-1.59 2.65-1.59.49 0 .95.11 1.36.32l4.695-7.05c-.64-.55-1.05-1.366-1.05-2.276 0-1.658 1.344-3 3-3s3 1.342 3 3-1.342 3-3 3c-.385 0-.755-.074-1.094-.207l-4.75 7.12c.524.54.845 1.276.845 2.086 0 1.656-1.342 3-3 3s-3-1.344-3-3c0-.158.013-.31.036-.46l-6.386-2.13c-.51.945-1.506 1.59-2.65 1.59-.31 0-.61-.048-.895-.136zM9.5 28.5c1.105 0 2-.895 2-2s-.895-2-2-2-2 .895-2 2 .895 2 2 2zm8-13c1.105 0 2-.895 2-2s-.895-2-2-2-2 .895-2 2 .895 2 2 2zm12 4c1.105 0 2-.895 2-2s-.895-2-2-2-2 .895-2 2 .895 2 2 2zm8-12c1.105 0 2-.895 2-2s-.895-2-2-2-2 .895-2 2 .895 2 2 2z" fill="#C5DBF1"/>
</svg>
