<svg width="45" height="32" viewBox="0 0 45 32" xmlns="http://www.w3.org/2000/svg">
  <path class="icon" d="M22.962 16.923c-3.845 0-6.962-3.117-6.962-6.96C16 6.116 19.117 3 22.962 3c3.844 0 6.96 3.117 6.96 6.962 0 3.844-3.116 6.96-6.96 6.96zM11.828 23.84l-1.778 5.47H9l1.877-5.776c.67-2.06 2.59-3.455 4.755-3.455h14.66c2.165 0 4.085 1.393 4.754 3.453l1.877 5.776h-1.05l-1.778-5.468c-.535-1.647-2.07-2.763-3.804-2.763H15.635c-1.732 0-3.268 1.115-3.804 2.763zm11.134-7.917c3.292 0 5.96-2.67 5.96-5.96C28.922 6.67 26.254 4 22.962 4S17 6.67 17 9.962s2.67 5.96 5.962 5.96z" fill="#C5DBF1"/>
</svg>
