<svg width="45" height="32" viewBox="0 0 45 32" xmlns="http://www.w3.org/2000/svg">
  <path class="icon" d="M9 8h27.5V6.917c0-1.06-.895-1.917-2-1.917h-2.786V4H34.5c1.657 0 3 1.29 3 2.885V29H8V6.885C8 5.29 9.343 4 11 4h3.286v1H11c-1.105 0-2 .858-2 1.917V8zm0 1v19h27.5V9H9zm16.714-5v1h-5.428V4h5.428zm-13 20.43v-1h5.143v1h-5.143zm7.715 0v-1h5.14v1h-5.14zm7.71 0v-1h5.14v1h-5.14zm-15.43-3.525v-1h5.14v1h-5.14zm7.712 0v-1h5.14v1h-5.14zm7.713 0v-1h5.143v1h-5.14zM12.71 17.38v-1h5.145v1h-5.143zm7.717 0v-1h5.14v1h-5.14zm7.713 0v-1h5.143v1H28.14zm-15.43-3.52v-1h5.144v1H12.71zm7.716 0v-1h5.14v1h-5.14zm7.713 0v-1h5.14v1h-5.14zM17.25 3c-.552 0-1 .448-1 1v1c0 .552.448 1 1 1s1-.448 1-1V4c0-.552-.448-1-1-1zm0-1c1.104 0 2 .895 2 2v1c0 1.105-.896 2-2 2-1.105 0-2-.895-2-2V4c0-1.105.895-2 2-2zm11.52 1c-.552 0-1 .448-1 1v1c0 .552.448 1 1 1 .553 0 1-.448 1-1V4c0-.552-.447-1-1-1zm0-1c1.105 0 2 .895 2 2v1c0 1.105-.895 2-2 2-1.104 0-2-.895-2-2V4c0-1.105.896-2 2-2z" fill="#C5DBF1"/>
</svg>

