<svg width="45" height="33" viewBox="0 0 45 33" xmlns="http://www.w3.org/2000/svg">
  <path class="icon" d="M25.916 4.418l-.743-.198V1h-5v3.23l-.74.2c-1.507.407-2.92 1.094-4.17 2.02l-.623.463-2.505-2.03L8.988 8.77l2.543 2.06-.3.696c-.61 1.41-.96 2.927-1.02 4.492l-.03.765-3.18.734 1.13 4.873 3.16-.73.36.68c.726 1.37 1.706 2.6 2.883 3.62l.58.5-1.414 2.902 4.493 2.192 1.42-2.918.75.14c.768.146 1.55.22 2.34.22.777 0 1.544-.07 2.295-.21l.748-.14 1.418 2.907 4.496-2.192-1.402-2.872.586-.503c1.19-1.022 2.18-2.258 2.912-3.64l.36-.68 3.11.72 1.127-4.873-3.13-.72-.03-.766c-.057-1.58-.41-3.11-1.03-4.533l-.305-.697 2.505-2.03-3.15-3.886-2.476 2.01-.622-.46c-1.256-.928-2.676-1.613-4.192-2.015zm4.788 1.21l1.878-1.52c.43-.348 1.06-.282 1.406.147l3.147 3.886c.348.43.28 1.06-.148 1.41l-1.913 1.55c.66 1.51 1.052 3.16 1.116 4.898l2.38.55c.54.124.875.66.75 1.2l-1.124 4.87c-.125.54-.662.874-1.2.75l-2.363-.546c-.796 1.5-1.867 2.833-3.145 3.93l1.063 2.18c.248.497.04 1.096-.46 1.338l-4.49 2.19c-.495.244-1.094.037-1.336-.46l-1.084-2.222c-.803.15-1.63.227-2.477.227-.864 0-1.708-.08-2.526-.234L19.09 32c-.243.496-.84.703-1.338.46l-4.495-2.19c-.497-.243-.703-.84-.46-1.34l1.078-2.21c-1.265-1.094-2.325-2.42-3.114-3.91l-2.41.557c-.54.124-1.075-.21-1.2-.75l-1.124-4.87c-.124-.54.21-1.076.75-1.2l2.433-.562c.063-1.72.45-3.356 1.1-4.853l-1.95-1.58c-.43-.346-.497-.976-.15-1.405l3.147-3.885c.348-.43.977-.496 1.406-.15l1.904 1.54c1.336-.987 2.86-1.736 4.506-2.18V1c0-.552.45-1 1-1h5c.553 0 1 .448 1 1v2.45c1.658.44 3.19 1.188 4.53 2.178zM22.7 20c1.932 0 3.5-1.567 3.5-3.5S24.63 13 22.7 13c-1.934 0-3.5 1.567-3.5 3.5s1.566 3.5 3.5 3.5zm0 1c-2.486 0-4.5-2.015-4.5-4.5s2.014-4.5 4.5-4.5c2.484 0 4.5 2.015 4.5 4.5S25.183 21 22.7 21z" fill="#C5DBF1"/>
</svg>
