<svg width="45" height="32" viewBox="0 0 45 32" xmlns="http://www.w3.org/2000/svg">
  <path class="icon" d="M8.5 19.5c-2.21 0-4-1.79-4-4s1.79-4 4-4 4 1.79 4 4-1.79 4-4 4zm5.48 6.48c0-2.21-1.792-4-4-4H7.02c-2.208 0-4 1.79-4 4h-1c0-2.762 2.24-5 5-5h2.96c2.76 0 5 2.238 5 5h-1zm8.52-6.48c-2.21 0-4-1.79-4-4s1.79-4 4-4 4 1.79 4 4-1.79 4-4 4zm5.48 6.48c0-2.21-1.792-4-4-4h-2.96c-2.208 0-4 1.79-4 4h-1c0-2.762 2.24-5 5-5h2.96c2.76 0 5 2.238 5 5h-1zm8.52-6.48c-2.21 0-4-1.79-4-4s1.79-4 4-4 4 1.79 4 4-1.79 4-4 4zm5.48 6.48c0-2.21-1.792-4-4-4h-2.96c-2.208 0-4 1.79-4 4h-1c0-2.762 2.24-5 5-5h2.96c2.76 0 5 2.238 5 5h-1zM19.25 10.6h-1c0-1.657-1.343-3-3-3s-3 1.343-3 3h-1c0-2.21 1.79-4 4-4s4 1.79 4 4zm14 0h-1c0-1.657-1.343-3-3-3s-3 1.343-3 3h-1c0-2.21 1.79-4 4-4s4 1.79 4 4zM8.5 18.5c1.657 0 3-1.343 3-3s-1.343-3-3-3-3 1.343-3 3 1.343 3 3 3zm14 0c1.657 0 3-1.343 3-3s-1.343-3-3-3-3 1.343-3 3 1.343 3 3 3zm14 0c1.657 0 3-1.343 3-3s-1.343-3-3-3-3 1.343-3 3 1.343 3 3 3z" fill="#4182C9"/>
</svg>

